<mxfile host="65bd71144e">
    <diagram id="vckkwV_smAUlrpQs1JhD" name="Page-1">
        <mxGraphModel dx="1145" dy="677" grid="1" gridSize="10" guides="1" tooltips="1" connect="1" arrows="1" fold="1" page="1" pageScale="1" pageWidth="850" pageHeight="1100" math="0" shadow="0">
            <root>
                <mxCell id="0"/>
                <mxCell id="1" parent="0"/>
                <mxCell id="2" value="User" style="shape=umlLifeline;participant=umlActor;perimeter=lifelinePerimeter;whiteSpace=wrap;html=1;container=1;collapsible=0;recursiveResize=0;verticalAlign=top;spacingTop=36;outlineConnect=0;" parent="1" vertex="1">
                    <mxGeometry x="110" y="80" width="20" height="490" as="geometry"/>
                </mxCell>
                <mxCell id="3" value="Control Volume" style="shape=umlLifeline;perimeter=lifelinePerimeter;whiteSpace=wrap;html=1;container=1;collapsible=0;recursiveResize=0;outlineConnect=0;" parent="1" vertex="1">
                    <mxGeometry x="270" y="80" width="100" height="490" as="geometry"/>
                </mxCell>
                <mxCell id="8" value="" style="html=1;points=[];perimeter=orthogonalPerimeter;" parent="3" vertex="1">
                    <mxGeometry x="45" y="120" width="10" height="50" as="geometry"/>
                </mxCell>
                <mxCell id="4" value="Control system #2" style="shape=umlLifeline;participant=umlActor;perimeter=lifelinePerimeter;whiteSpace=wrap;html=1;container=1;collapsible=0;recursiveResize=0;verticalAlign=top;spacingTop=36;outlineConnect=0;" parent="1" vertex="1">
                    <mxGeometry x="210" y="80" width="20" height="490" as="geometry"/>
                </mxCell>
                <mxCell id="7" value="Input pumps" style="shape=umlLifeline;participant=umlActor;perimeter=lifelinePerimeter;whiteSpace=wrap;html=1;container=1;collapsible=0;recursiveResize=0;verticalAlign=top;spacingTop=36;outlineConnect=0;" parent="1" vertex="1">
                    <mxGeometry x="415" y="80" width="20" height="490" as="geometry"/>
                </mxCell>
                <mxCell id="12" value="Control loop" style="shape=umlFrame;whiteSpace=wrap;html=1;" vertex="1" parent="1">
                    <mxGeometry x="150" y="280" width="410" height="270" as="geometry"/>
                </mxCell>
                <mxCell id="20" value="1. set_initial_volume()" style="html=1;verticalAlign=bottom;endArrow=block;" edge="1" parent="1">
                    <mxGeometry width="80" relative="1" as="geometry">
                        <mxPoint x="120" y="200" as="sourcePoint"/>
                        <mxPoint x="315" y="200" as="targetPoint"/>
                    </mxGeometry>
                </mxCell>
                <mxCell id="21" value="" style="html=1;points=[];perimeter=orthogonalPerimeter;" vertex="1" parent="1">
                    <mxGeometry x="215" y="310" width="10" height="50" as="geometry"/>
                </mxCell>
                <mxCell id="22" value="get_output_flow()" style="html=1;verticalAlign=bottom;endArrow=none;startArrow=block;startFill=1;endFill=0;" edge="1" parent="1" target="3">
                    <mxGeometry width="80" relative="1" as="geometry">
                        <mxPoint x="225" y="310" as="sourcePoint"/>
                        <mxPoint x="305" y="310" as="targetPoint"/>
                    </mxGeometry>
                </mxCell>
                <mxCell id="32" value="" style="html=1;points=[];perimeter=orthogonalPerimeter;" vertex="1" parent="1">
                    <mxGeometry x="315" y="360" width="10" height="40" as="geometry"/>
                </mxCell>
                <mxCell id="33" value="calc_error()" style="edgeStyle=orthogonalEdgeStyle;html=1;align=left;spacingLeft=2;endArrow=block;rounded=0;entryX=1;entryY=0;" edge="1" target="32" parent="1">
                    <mxGeometry relative="1" as="geometry">
                        <mxPoint x="320" y="340" as="sourcePoint"/>
                        <Array as="points">
                            <mxPoint x="345" y="340"/>
                        </Array>
                    </mxGeometry>
                </mxCell>
                <mxCell id="35" value="Timer" style="shape=umlLifeline;participant=umlActor;perimeter=lifelinePerimeter;whiteSpace=wrap;html=1;container=1;collapsible=0;recursiveResize=0;verticalAlign=top;spacingTop=36;outlineConnect=0;" vertex="1" parent="1">
                    <mxGeometry x="500" y="80" width="20" height="490" as="geometry"/>
                </mxCell>
                <mxCell id="38" value="" style="html=1;points=[];perimeter=orthogonalPerimeter;" vertex="1" parent="35">
                    <mxGeometry x="5" y="410" width="10" height="40" as="geometry"/>
                </mxCell>
                <mxCell id="36" value="" style="html=1;points=[];perimeter=orthogonalPerimeter;" vertex="1" parent="1">
                    <mxGeometry x="420" y="420" width="10" height="40" as="geometry"/>
                </mxCell>
                <mxCell id="37" value="set_input_capacity()" style="html=1;verticalAlign=bottom;endArrow=block;entryX=0.124;entryY=0.031;entryDx=0;entryDy=0;entryPerimeter=0;" edge="1" parent="1" target="36">
                    <mxGeometry width="80" relative="1" as="geometry">
                        <mxPoint x="320" y="422" as="sourcePoint"/>
                        <mxPoint x="400" y="420" as="targetPoint"/>
                    </mxGeometry>
                </mxCell>
                <mxCell id="39" value="wait()" style="html=1;verticalAlign=bottom;endArrow=block;entryX=-0.043;entryY=0.015;entryDx=0;entryDy=0;entryPerimeter=0;" edge="1" parent="1" target="38">
                    <mxGeometry width="80" relative="1" as="geometry">
                        <mxPoint x="320" y="490" as="sourcePoint"/>
                        <mxPoint x="400" y="490" as="targetPoint"/>
                    </mxGeometry>
                </mxCell>
            </root>
        </mxGraphModel>
    </diagram>
</mxfile>